#!OML:ASF H:\Punching\Project 1\Capture day 1\Session 1\female.ASF
:FULLY-SPECIFIED
:DEGREES
2612
root 0.160903 14.8602 -3.00652 20.5555 -35.8914 -8.03574
lowerback -4.09618 0.423413 6.5062
upperback -6.87881 0.44778 0.679646
thorax -4.82243 -0.114936 -2.92969
lowerneck -3.90292 12.9774 19.3244
upperneck 26.7347 21.8114 -21.0788
head 14.6784 9.79459 -8.29846
rclavicle -2.45771e-014 -2.5842e-014
rhumerus 20.0366 33.3987 -69.9779
rradius 127.073
rwrist -12.6006
rhand -32.0653 6.68478
rfingers 7.12502
rthumb -5.31177 -23.2286
lclavicle -2.45771e-014 -2.5842e-014
lhumerus 8.08786 1.11038 54.7341
lradius 139.373
lwrist 2.28969
lhand -30.3254 0.493981
lfingers 7.12502
lthumb -3.63174 30.4428
rfemur -9.20679 8.49312 22.4332
rtibia 27.3865
rfoot -30.4801 -20.9148
rtoes -6.07005
lfemur -48.1495 9.35624 0.529006
ltibia 44.9575
lfoot -6.49471 19.4784
ltoes 10.7727
2613
root 0.156552 14.8659 -3.03218 20.5276 -36.0762 -8.0642
lowerback -4.18096 0.450421 6.595
upperback -6.86443 0.477339 0.759686
thorax -4.75734 -0.100347 -2.89537
lowerneck -3.87687 12.9962 19.2547
upperneck 26.9021 21.9051 -21.1337
head 14.7788 9.82164 -8.30764
rclavicle 8.35532e-014 -1.11319e-014
rhumerus 19.9001 33.5022 -69.9693
rradius 127.068
rwrist -12.7355
rhand -31.9029 6.59967
rfingers 7.12502
rthumb -5.15499 -23.3176
lclavicle 8.35532e-014 -1.11319e-014
lhumerus 7.87711 1.05483 55.0517
lradius 139.358
lwrist 2.30948
lhand -30.3598 0.32919
lfingers 7.12502
lthumb -3.66492 30.2774
rfemur -9.30146 8.4003 22.4625
rtibia 27.4393
rfoot -30.3948 -20.7451
rtoes -6.08537
lfemur -47.582 8.47277 0.989397
ltibia 44.3425
lfoot -7.28811 20.5287
ltoes 12.373
2614
root 0.152537 14.8711 -3.05442 20.4679 -36.2985 -8.05268
lowerback -4.26767 0.488408 6.64584
upperback -6.84711 0.521049 0.826153
thorax -4.68625 -0.0768861 -2.85392
lowerneck -3.86759 13.0138 19.1809
upperneck 27.0888 21.9936 -21.1696
head 14.887 9.84574 -8.30937
rclavicle -1.25206e-013 -2.18663e-014
rhumerus 19.7783 33.5985 -69.9605
rradius 127.062
rwrist -12.8824
rhand -31.7431 6.53285
rfingers 7.12502
rthumb -5.00072 -23.3881
lclavicle -1.25206e-013 -2.18663e-014
lhumerus 7.67843 0.964983 55.3409
lradius 139.354
lwrist 2.33402
lhand -30.4006 0.265457
lfingers 7.12502
lthumb -3.70434 30.213
rfemur -9.38754 8.31559 22.4394
rtibia 27.5126
rfoot -30.3325 -20.5682
rtoes -6.10675
lfemur -46.9744 7.45892 1.47213
ltibia 43.5998
lfoot -8.23889 21.7932
ltoes 14.6055
2615
root 0.148872 14.8748 -3.07383 20.3845 -36.5545 -8.01532
lowerback -4.34798 0.534899 6.66514
upperback -6.82902 0.576568 0.883516
thorax -4.61656 -0.0462348 -2.80425
lowerneck -3.86405 13.0278 19.1053
upperneck 27.2828 22.0735 -21.193
head 14.9954 9.86621 -8.30744
rclavicle 4.27837e-014 -8.54774e-015
rhumerus 19.6806 33.6942 -69.9521
rradius 127.043
rwrist -13.0234
rhand -31.6127 6.51641
rfingers 7.12502
rthumb -4.87477 -23.4075
lclavicle 4.27837e-014 -8.54774e-015
lhumerus 7.4861 0.854908 55.5925
lradius 139.36
lwrist 2.37751
lhand -30.436 0.258334
lfingers 7.12502
lthumb -3.73852 30.2053
rfemur -9.47371 8.24845 22.3778
rtibia 27.6203
rfoot -30.2942 -20.3914
rtoes -6.15061
lfemur -46.3515 6.40002 1.94186
ltibia 42.8012
lfoot -9.37969 23.1517
ltoes 17.2236
2616
root 0.145549 14.8768 -3.09086 20.2799 -36.8318 -7.95902
lowerback -4.42443 0.589821 6.66901
upperback -6.80989 0.643375 0.927709
thorax -4.54677 -0.00950254 -2.75953
lowerneck -3.85652 13.034 19.0406
upperneck 27.4751 22.1386 -21.2107
head 15.0991 9.88214 -8.30856
rclavicle 4.45712e-016 1.21259e-014
rhumerus 19.602 33.7763 -69.9467
rradius 127.019
rwrist -13.1435
rhand -31.4996 6.5003
rfingers 7.12502
rthumb -4.7656 -23.4261
lclavicle 4.45712e-016 1.21259e-014
lhumerus 7.3187 0.717126 55.8007
lradius 139.377
lwrist 2.43569
lhand -30.4586 0.314621
lfingers 7.12502
lthumb -3.7603 30.2612
rfemur -9.55922 8.187 22.2874
rtibia 27.7633
rfoot -30.2813 -20.2082
rtoes -6.21729
lfemur -45.7319 5.36089 2.36675
ltibia 42.0144
lfoot -10.7076 24.4826
ltoes 19.9656
2617
root 0.142506 14.8774 -3.10572 20.1569 -37.1195 -7.89071
lowerback -4.49296 0.650739 6.666
upperback -6.79378 0.718722 0.961894
thorax -4.48385 0.0312732 -2.72122
lowerneck -3.83849 13.0338 18.984
upperneck 27.6659 22.1914 -21.2201
head 15.1962 9.895 -8.31076
rclavicle -1.32813e-014 3.97569e-016
rhumerus 19.5326 33.8459 -69.9439
rradius 126.983
rwrist -13.2247
rhand -31.4125 6.4939
rfingers 7.12502
rthumb -4.68144 -23.4344
lclavicle -1.32813e-014 3.97569e-016
lhumerus 7.16759 0.554035 55.9665
lradius 139.406
lwrist 2.49421
lhand -30.4686 0.467106
lfingers 7.12502
lthumb -3.76998 30.4135
rfemur -9.63813 8.13458 22.1789
rtibia 27.9329
rfoot -30.2927 -20.0237
rtoes -6.29596
lfemur -45.127 4.38913 2.72858
ltibia 41.291
lfoot -12.1392 25.6926
ltoes 22.4761
2618
root 0.139673 14.8767 -3.11863 20.0326 -37.4097 -7.8378
lowerback -4.55194 0.716002 6.67951
upperback -6.77836 0.800251 0.99001
thorax -4.42658 0.0740104 -2.69829
lowerneck -3.81615 13.0327 18.9445
upperneck 27.8562 22.2394 -21.2237
head 15.2928 9.9084 -8.31462
rclavicle 4.1838e-015 -1.59028e-015
rhumerus 19.4792 33.9022 -69.9524
rradius 126.935
rwrist -13.2597
rhand -31.3357 6.46594
rfingers 7.12502
rthumb -4.60727 -23.464
lclavicle 4.1838e-015 -1.59028e-015
lhumerus 7.03566 0.384453 56.0834
lradius 139.44
lwrist 2.5415
lhand -30.4599 0.64238
lfingers 7.12502
lthumb -3.76161 30.5889
rfemur -9.70399 8.09436 22.0788
rtibia 28.1119
rfoot -30.314 -19.8405
rtoes -6.39653
lfemur -44.5412 3.50141 3.05054
ltibia 40.6587
lfoot -13.5888 26.7446
ltoes 24.5738
2619
root 0.136975 14.875 -3.12962 19.9132 -37.6891 -7.80995
lowerback -4.60215 0.783153 6.72248
upperback -6.76531 0.88452 1.01561
thorax -4.37661 0.116383 -2.69427
lowerneck -3.78535 13.0303 18.9165
upperneck 28.0435 22.2825 -21.2213
head 15.3858 9.92205 -8.31906
rclavicle -2.5328e-014 -1.41137e-014
rhumerus 19.4347 33.9406 -69.9722
rradius 126.882
rwrist -13.2629
rhand -31.259 6.4264
rfingers 7.12502
rthumb -4.53321 -23.5051
lclavicle -2.5328e-014 -1.41137e-014
lhumerus 6.91823 0.218554 56.1598
lradius 139.471
lwrist 2.559
lhand -30.4304 0.831399
lfingers 7.12502
lthumb -3.73313 30.7784
rfemur -9.74896 8.05663 21.9998
rtibia 28.2852
rfoot -30.3384 -19.6556
rtoes -6.51079
lfemur -43.9755 2.65022 3.37051
ltibia 40.1223
lfoot -15.0024 27.648
ltoes 26.2562
